<svg id="visual" viewBox="0 0 960 540" width="960" height="540" xmlns="http://www.w3.org/2000/svg" xmlns:xlink="http://www.w3.org/1999/xlink" version="1.1"><rect x="0" y="0" width="960" height="540" fill="#FFFFFF"></rect><defs><linearGradient id="grad1_0" x1="43.8%" y1="100%" x2="100%" y2="0%"><stop offset="14.444444444444446%" stop-color="#7000ff" stop-opacity="1"></stop><stop offset="85.55555555555554%" stop-color="#7000ff" stop-opacity="1"></stop></linearGradient></defs><defs><linearGradient id="grad1_1" x1="43.8%" y1="100%" x2="100%" y2="0%"><stop offset="14.444444444444446%" stop-color="#7000ff" stop-opacity="1"></stop><stop offset="85.55555555555554%" stop-color="#8e3eff" stop-opacity="1"></stop></linearGradient></defs><defs><linearGradient id="grad1_2" x1="43.8%" y1="100%" x2="100%" y2="0%"><stop offset="14.444444444444446%" stop-color="#a762ff" stop-opacity="1"></stop><stop offset="85.55555555555554%" stop-color="#8e3eff" stop-opacity="1"></stop></linearGradient></defs><defs><linearGradient id="grad1_3" x1="43.8%" y1="100%" x2="100%" y2="0%"><stop offset="14.444444444444446%" stop-color="#a762ff" stop-opacity="1"></stop><stop offset="85.55555555555554%" stop-color="#bd82ff" stop-opacity="1"></stop></linearGradient></defs><defs><linearGradient id="grad1_4" x1="43.8%" y1="100%" x2="100%" y2="0%"><stop offset="14.444444444444446%" stop-color="#d0a2ff" stop-opacity="1"></stop><stop offset="85.55555555555554%" stop-color="#bd82ff" stop-opacity="1"></stop></linearGradient></defs><defs><linearGradient id="grad1_5" x1="43.8%" y1="100%" x2="100%" y2="0%"><stop offset="14.444444444444446%" stop-color="#d0a2ff" stop-opacity="1"></stop><stop offset="85.55555555555554%" stop-color="#e1c1ff" stop-opacity="1"></stop></linearGradient></defs><defs><linearGradient id="grad1_6" x1="43.8%" y1="100%" x2="100%" y2="0%"><stop offset="14.444444444444446%" stop-color="#f1e0ff" stop-opacity="1"></stop><stop offset="85.55555555555554%" stop-color="#e1c1ff" stop-opacity="1"></stop></linearGradient></defs><defs><linearGradient id="grad1_7" x1="43.8%" y1="100%" x2="100%" y2="0%"><stop offset="14.444444444444446%" stop-color="#f1e0ff" stop-opacity="1"></stop><stop offset="85.55555555555554%" stop-color="#ffffff" stop-opacity="1"></stop></linearGradient></defs><defs><linearGradient id="grad2_0" x1="0%" y1="100%" x2="56.3%" y2="0%"><stop offset="14.444444444444446%" stop-color="#7000ff" stop-opacity="1"></stop><stop offset="85.55555555555554%" stop-color="#7000ff" stop-opacity="1"></stop></linearGradient></defs><defs><linearGradient id="grad2_1" x1="0%" y1="100%" x2="56.3%" y2="0%"><stop offset="14.444444444444446%" stop-color="#8e3eff" stop-opacity="1"></stop><stop offset="85.55555555555554%" stop-color="#7000ff" stop-opacity="1"></stop></linearGradient></defs><defs><linearGradient id="grad2_2" x1="0%" y1="100%" x2="56.3%" y2="0%"><stop offset="14.444444444444446%" stop-color="#8e3eff" stop-opacity="1"></stop><stop offset="85.55555555555554%" stop-color="#a762ff" stop-opacity="1"></stop></linearGradient></defs><defs><linearGradient id="grad2_3" x1="0%" y1="100%" x2="56.3%" y2="0%"><stop offset="14.444444444444446%" stop-color="#bd82ff" stop-opacity="1"></stop><stop offset="85.55555555555554%" stop-color="#a762ff" stop-opacity="1"></stop></linearGradient></defs><defs><linearGradient id="grad2_4" x1="0%" y1="100%" x2="56.3%" y2="0%"><stop offset="14.444444444444446%" stop-color="#bd82ff" stop-opacity="1"></stop><stop offset="85.55555555555554%" stop-color="#d0a2ff" stop-opacity="1"></stop></linearGradient></defs><defs><linearGradient id="grad2_5" x1="0%" y1="100%" x2="56.3%" y2="0%"><stop offset="14.444444444444446%" stop-color="#e1c1ff" stop-opacity="1"></stop><stop offset="85.55555555555554%" stop-color="#d0a2ff" stop-opacity="1"></stop></linearGradient></defs><defs><linearGradient id="grad2_6" x1="0%" y1="100%" x2="56.3%" y2="0%"><stop offset="14.444444444444446%" stop-color="#e1c1ff" stop-opacity="1"></stop><stop offset="85.55555555555554%" stop-color="#f1e0ff" stop-opacity="1"></stop></linearGradient></defs><defs><linearGradient id="grad2_7" x1="0%" y1="100%" x2="56.3%" y2="0%"><stop offset="14.444444444444446%" stop-color="#ffffff" stop-opacity="1"></stop><stop offset="85.55555555555554%" stop-color="#f1e0ff" stop-opacity="1"></stop></linearGradient></defs><g transform="translate(960, 540)"><path d="M-486 0C-483.8 -52 -481.5 -104.1 -462.2 -150.2C-442.9 -196.3 -406.4 -236.4 -369.7 -268.6C-333 -300.8 -296 -325 -261 -359.2C-225.9 -393.4 -192.7 -437.5 -149.6 -460.3C-106.4 -483.1 -53.2 -484.6 0 -486L0 0Z" fill="#f8efff"></path><path d="M-425.2 0C-423.3 -45.5 -421.4 -91.1 -404.4 -131.4C-387.5 -171.7 -355.6 -206.9 -323.5 -235C-291.4 -263.2 -259 -284.4 -228.4 -314.3C-197.7 -344.2 -168.7 -382.8 -130.9 -402.8C-93.1 -422.7 -46.5 -424 0 -425.2L0 0Z" fill="#e9d0ff"></path><path d="M-364.5 0C-362.8 -39 -361.2 -78.1 -346.7 -112.6C-332.2 -147.2 -304.8 -177.3 -277.3 -201.5C-249.8 -225.6 -222 -243.8 -195.7 -269.4C-169.4 -295 -144.6 -328.1 -112.2 -345.2C-79.8 -362.3 -39.9 -363.4 0 -364.5L0 0Z" fill="#d9b1ff"></path><path d="M-303.7 0C-302.4 -32.5 -301 -65.1 -288.9 -93.9C-276.8 -122.7 -254 -147.8 -231.1 -167.9C-208.1 -188 -185 -203.1 -163.1 -224.5C-141.2 -245.9 -120.5 -273.4 -93.5 -287.7C-66.5 -301.9 -33.2 -302.8 0 -303.7L0 0Z" fill="#c792ff"></path><path d="M-243 0C-241.9 -26 -240.8 -52 -231.1 -75.1C-221.4 -98.1 -203.2 -118.2 -184.9 -134.3C-166.5 -150.4 -148 -162.5 -130.5 -179.6C-113 -196.7 -96.4 -218.8 -74.8 -230.2C-53.2 -241.6 -26.6 -242.3 0 -243L0 0Z" fill="#b272ff"></path><path d="M-182.2 0C-181.4 -19.5 -180.6 -39 -173.3 -56.3C-166.1 -73.6 -152.4 -88.7 -138.6 -100.7C-124.9 -112.8 -111 -121.9 -97.9 -134.7C-84.7 -147.5 -72.3 -164.1 -56.1 -172.6C-39.9 -181.2 -19.9 -181.7 0 -182.2L0 0Z" fill="#9b51ff"></path><path d="M-121.5 0C-120.9 -13 -120.4 -26 -115.6 -37.5C-110.7 -49.1 -101.6 -59.1 -92.4 -67.2C-83.3 -75.2 -74 -81.3 -65.2 -89.8C-56.5 -98.3 -48.2 -109.4 -37.4 -115.1C-26.6 -120.8 -13.3 -121.1 0 -121.5L0 0Z" fill="#8028ff"></path><path d="M-60.7 0C-60.5 -6.5 -60.2 -13 -57.8 -18.8C-55.4 -24.5 -50.8 -29.6 -46.2 -33.6C-41.6 -37.6 -37 -40.6 -32.6 -44.9C-28.2 -49.2 -24.1 -54.7 -18.7 -57.5C-13.3 -60.4 -6.6 -60.6 0 -60.7L0 0Z" fill="#7000ff"></path></g><g transform="translate(0, 0)"><path d="M486 0C446.2 41.4 406.4 82.8 385.2 125.2C363.9 167.5 361.2 210.7 344.6 250.4C328.1 290.1 297.8 326.2 264.5 364.1C231.2 401.9 194.8 441.6 150.2 462.2C105.6 482.8 52.8 484.4 0 486L0 0Z" fill="#f8efff"></path><path d="M425.3 0C390.4 36.2 355.6 72.5 337 109.5C318.4 146.5 316 184.4 301.6 219.1C287.1 253.8 260.6 285.4 231.4 318.6C202.3 351.7 170.4 386.4 131.4 404.4C92.4 422.5 46.2 423.9 0 425.3L0 0Z" fill="#e9d0ff"></path><path d="M364.5 0C334.7 31.1 304.8 62.1 288.9 93.9C272.9 125.6 270.9 158 258.5 187.8C246.1 217.6 223.4 244.6 198.4 273C173.4 301.5 146.1 331.2 112.6 346.7C79.2 362.1 39.6 363.3 0 364.5L0 0Z" fill="#d9b1ff"></path><path d="M303.8 0C278.9 25.9 254 51.8 240.7 78.2C227.4 104.7 225.7 131.7 215.4 156.5C205.1 181.3 186.2 203.9 165.3 227.5C144.5 251.2 121.7 276 93.9 288.9C66 301.8 33 302.8 0 303.8L0 0Z" fill="#c792ff"></path><path d="M243 0C223.1 20.7 203.2 41.4 192.6 62.6C182 83.7 180.6 105.4 172.3 125.2C164.1 145 148.9 163.1 132.3 182C115.6 201 97.4 220.8 75.1 231.1C52.8 241.4 26.4 242.2 0 243L0 0Z" fill="#b272ff"></path><path d="M182.3 0C167.3 15.5 152.4 31.1 144.4 46.9C136.5 62.8 135.4 79 129.2 93.9C123 108.8 111.7 122.3 99.2 136.5C86.7 150.7 73 165.6 56.3 173.3C39.6 181.1 19.8 181.7 0 182.3L0 0Z" fill="#9b51ff"></path><path d="M121.5 0C111.6 10.4 101.6 20.7 96.3 31.3C91 41.9 90.3 52.7 86.2 62.6C82 72.5 74.5 81.5 66.1 91C57.8 100.5 48.7 110.4 37.5 115.6C26.4 120.7 13.2 121.1 0 121.5L0 0Z" fill="#8028ff"></path><path d="M60.8 0C55.8 5.2 50.8 10.4 48.1 15.6C45.5 20.9 45.1 26.3 43.1 31.3C41 36.3 37.2 40.8 33.1 45.5C28.9 50.2 24.3 55.2 18.8 57.8C13.2 60.4 6.6 60.6 0 60.8L0 0Z" fill="#7000ff"></path></g></svg>